# xmcd
#
# Track frame offsets:
#	150
#	15117
#	35807
#	49387
#	63240
#	75810
#	91367
#	109712
#	123155
#	136042
#	148525
#	162267
#	174172
#	185847
#	196210
#	209010
#
# Disc length: 2959 seconds
#
# Revision: 7
# Processed by: cddbd v1.5.2PL0 Copyright (c) Steve Scherf et al.
# Submitted via: EasyCDDAExtractor 16.0.9.1
#
DISCID=cf0b8d10
DTITLE=Various Artist - Golden Soul Hits   N-012
DYEAR=2000
DGENRE=Soul
TTITLE0=George McCrae - Rock your baby
TTITLE1=Glady's Knight and The Pips - Midnight train to Georgia
TTITLE2=Percy Sledge - When a man loves a woman
TTITLE3=Clarence Carter - Patches
TTITLE4=The Platters - Twilight time
TTITLE5=Tina Turner - Crazy 'bout you baby
TTITLE6=Brook Benton - Rainy night in Georgia
TTITLE7=Sam and Dave - Soul man
TTITLE8=Ben E. King and The Drifters - Stand by me
TTITLE9=Ike and Tina Turner - So fine
TTITLE10=Percy Sledge - My special prayer
TTITLE11=The Platters - The great pretender
TTITLE12=Brook Benton - Kiddio
TTITLE13=Ben E. King and The Drifters - When my little girl is smiling
TTITLE14=Tina Turner - We need an understanding
TTITLE15=Sam and Dave - Wonderful World
EXTD=YEAR: 2000  ID3G:  17
EXTT0=George McCrae
EXTT1=Glady's Knight and The Pips
EXTT2=Percy Sledge
EXTT3=Clarence Carter
EXTT4=The Platters
EXTT5=Tina Turner
EXTT6=Brook Benton
EXTT7=Sam and Dave
EXTT8=Ben E King and The Drifters
EXTT9=Ike and Tina Turner
EXTT10=Percy Sledge
EXTT11=The Platters
EXTT12=Brook Benton
EXTT13=Ben E King and The Drifters
EXTT14=Tina Turner
EXTT15=Sam and Dave
PLAYORDER=
